<svg xmlns="http://www.w3.org/2000/svg" width="512" height="512" viewBox="0 0 512 512"><title>Bookplate</title><rect width="512" height="512" rx="114" fill="#1777FF"/><path d="M184 118 L328 118 L362 152 L362 360 L328 394 L184 394 L150 360 L150 152 Z" fill="none" stroke="#FFFFFF" stroke-width="15" stroke-linejoin="miter"/><path d="M16.11 -4.95 L16.11 1.00 C31.23 0.25 37.69 0.00 43.39 0.00 L51.58 0.00 C70.67 1.00 70.92 1.00 73.89 1.00 C92.00 1.00 108.38 -3.45 119.53 -11.66 C134.16 -22.11 142.84 -38.80 142.84 -56.47 C142.84 -69.17 137.88 -79.39 128.70 -86.11 C119.03 -93.08 110.59 -95.33 91.50 -96.83 C103.66 -99.31 109.36 -101.55 116.31 -106.28 C128.20 -114.50 134.41 -125.22 134.41 -138.16 C134.41 -160.08 119.03 -172.00 90.27 -172.00 C88.03 -172.00 88.03 -172.00 67.94 -171.50 C49.84 -171.25 49.84 -171.25 45.62 -171.25 C38.92 -171.25 27.52 -171.50 6.44 -172.00 L6.44 -164.55 L15.38 -163.81 C27.03 -162.81 27.77 -161.58 28.02 -141.41 L28.02 -23.36 C28.02 -13.89 26.28 -8.67 22.56 -7.17 Z M51.58 -89.84 C61.25 -90.31 62.98 -90.31 67.94 -90.31 C101.67 -90.31 117.30 -78.16 117.30 -51.61 C117.30 -24.84 100.19 -9.41 70.67 -9.41 C63.23 -9.41 57.78 -9.91 51.58 -11.41 Z M51.58 -160.08 C58.03 -161.58 62.98 -162.08 70.92 -162.08 C98.45 -162.08 109.86 -153.34 109.86 -132.41 C109.86 -110.47 94.98 -99.00 66.70 -99.00 C62.23 -99.00 59.02 -99.00 51.58 -99.48 Z M152.00 0.00" fill="#FFFFFF" transform="translate(181.78 341.50)"/></svg>